<svg width="24" height="24" viewBox="0 0 24 24" fill="none" xmlns="http://www.w3.org/2000/svg">
<path fill-rule="evenodd" clip-rule="evenodd" d="M12 21.5C17.2467 21.5 21.5 17.2467 21.5 12C21.5 6.75329 17.2467 2.5 12 2.5C6.75329 2.5 2.5 6.75329 2.5 12C2.5 17.2467 6.75329 21.5 12 21.5ZM12 23C18.0751 23 23 18.0751 23 12C23 5.92487 18.0751 1 12 1C5.92487 1 1 5.92487 1 12C1 18.0751 5.92487 23 12 23ZM13 7.25C13 7.94036 12.4404 8.5 11.75 8.5C11.0596 8.5 10.5 7.94036 10.5 7.25C10.5 6.55964 11.0596 6 11.75 6C12.4404 6 13 6.55964 13 7.25ZM9.5 10.75C9.08579 10.75 8.75 11.0858 8.75 11.5C8.75 11.9142 9.08579 12.25 9.5 12.25H11.25V16.25H9.5C9.08579 16.25 8.75 16.5858 8.75 17C8.75 17.4142 9.08579 17.75 9.5 17.75H14.5C14.9142 17.75 15.25 17.4142 15.25 17C15.25 16.5858 14.9142 16.25 14.5 16.25H12.75V10.75H9.5Z" fill="#21242C"/>
</svg>
