<svg width="24" height="24" viewBox="0 0 24 24" fill="none" xmlns="http://www.w3.org/2000/svg">
<path d="M12.75 9.5C12.75 9.08579 12.4142 8.75 12 8.75C11.5858 8.75 11.25 9.08579 11.25 9.5V11.25H9.5C9.08579 11.25 8.75 11.5858 8.75 12C8.75 12.4142 9.08579 12.75 9.5 12.75H11.25V14.5C11.25 14.9142 11.5858 15.25 12 15.25C12.4142 15.25 12.75 14.9142 12.75 14.5V12.75H14.5C14.9142 12.75 15.25 12.4142 15.25 12C15.25 11.5858 14.9142 11.25 14.5 11.25H12.75V9.5Z" fill="#21242C"/>
<path fill-rule="evenodd" clip-rule="evenodd" d="M11.3199 1.25C10.4857 1.25 9.76744 1.83881 9.60384 2.6568L9.20296 4.66122C9.19246 4.7137 9.14355 4.7926 9.03169 4.83902C8.92317 4.88405 8.83567 4.86426 8.78865 4.83292L7.08774 3.69898C6.39365 3.23625 5.46944 3.32777 4.87957 3.91763L3.91763 4.87957C3.32777 5.46944 3.23626 6.39365 3.69898 7.08774L4.83296 8.78871C4.8643 8.83571 4.88407 8.92318 4.83906 9.03167C4.79266 9.1435 4.71377 9.19239 4.66132 9.20288L2.6568 9.60379C1.8388 9.76739 1.25 10.4856 1.25 11.3198V12.6802C1.25 13.5144 1.83881 14.2326 2.6568 14.3962L4.66132 14.7971C4.71377 14.8076 4.79266 14.8565 4.83906 14.9683C4.88407 15.0768 4.86429 15.1643 4.83296 15.2113L3.69898 16.9123C3.23625 17.6064 3.32777 18.5306 3.91763 19.1204L4.87957 20.0824C5.46944 20.6722 6.39365 20.7637 7.08774 20.301L8.78865 19.1671C8.83567 19.1357 8.92317 19.116 9.03169 19.161C9.14355 19.2074 9.19246 19.2863 9.20296 19.3388L9.60384 21.3432C9.76744 22.1612 10.4857 22.75 11.3199 22.75H12.6803C13.5144 22.75 14.2327 22.1612 14.3963 21.3432L14.7972 19.3388C14.8076 19.2863 14.8566 19.2074 14.9684 19.161C15.0769 19.116 15.1644 19.1358 15.2114 19.1671L16.9123 20.301C17.6064 20.7637 18.5306 20.6722 19.1204 20.0824L20.0824 19.1204C20.6722 18.5306 20.7637 17.6064 20.301 16.9123L19.1671 15.2114C19.1358 15.1644 19.116 15.0769 19.161 14.9684C19.2075 14.8565 19.2864 14.8076 19.3389 14.7971L21.3432 14.3962C22.1612 14.2326 22.75 13.5144 22.75 12.6802V11.3198C22.75 10.4856 22.1612 9.76739 21.3432 9.60379L19.3389 9.20292C19.2864 9.19242 19.2075 9.1435 19.161 9.03163C19.116 8.9231 19.1358 8.83559 19.1671 8.78856L20.301 7.08774C20.7637 6.39365 20.6722 5.46944 20.0824 4.87957L19.1204 3.91763C18.5306 3.32777 17.6064 3.23625 16.9123 3.69898L15.2114 4.83291C15.1644 4.86424 15.0769 4.88402 14.9684 4.839C14.8566 4.7926 14.8076 4.71371 14.7972 4.66125L14.3963 2.6568C14.2327 1.8388 13.5144 1.25 12.6803 1.25H11.3199ZM11.0747 2.95097C11.0981 2.83411 11.2007 2.75 11.3199 2.75H12.6803C12.7994 2.75 12.902 2.83411 12.9254 2.95097L13.3263 4.95542C13.4477 5.56268 13.8839 6.01303 14.3935 6.22447C14.9068 6.43744 15.5303 6.42305 16.0434 6.08098L17.7443 4.94706C17.8435 4.88095 17.9755 4.89403 18.0598 4.97829L19.0217 5.94023C19.106 6.0245 19.119 6.15653 19.0529 6.25569L17.9191 7.95651C17.577 8.46965 17.5626 9.09322 17.7756 9.60651C17.987 10.1161 18.4374 10.5523 19.0447 10.6738L21.049 11.0747C21.1659 11.098 21.25 11.2006 21.25 11.3198V12.6802C21.25 12.7994 21.1659 12.902 21.049 12.9253L19.0447 13.3262C18.4374 13.4477 17.987 13.8839 17.7756 14.3935C17.5626 14.9068 17.577 15.5304 17.9191 16.0435L19.0529 17.7443C19.119 17.8435 19.106 17.9755 19.0217 18.0598L18.0598 19.0217C17.9755 19.106 17.8435 19.119 17.7443 19.0529L16.0434 17.919C15.5303 17.5769 14.9068 17.5626 14.3935 17.7755C13.8839 17.987 13.4477 18.4373 13.3263 19.0446L12.9254 21.049C12.902 21.1659 12.7994 21.25 12.6803 21.25H11.3199C11.2007 21.25 11.0981 21.1659 11.0747 21.049L10.6738 19.0446C10.5524 18.4373 10.1162 17.987 9.60657 17.7755C9.09328 17.5625 8.46972 17.5769 7.9566 17.919L6.25569 19.0529C6.15653 19.119 6.0245 19.106 5.94023 19.0217L4.97829 18.0598C4.89403 17.9755 4.88095 17.8435 4.94706 17.7443L6.08104 16.0433C6.4231 15.5302 6.43749 14.9067 6.22452 14.3935C6.01309 13.8839 5.56275 13.4477 4.9555 13.3262L2.95097 12.9253C2.83411 12.902 2.75 12.7994 2.75 12.6802V11.3198C2.75 11.2006 2.83411 11.098 2.95097 11.0747L4.9555 10.6738C5.56275 10.5523 6.01309 10.1161 6.22452 9.60654C6.43749 9.09328 6.4231 8.46976 6.08104 7.95666L4.94706 6.25568C4.88095 6.15653 4.89403 6.0245 4.97829 5.94023L5.94023 4.97829C6.0245 4.89402 6.15653 4.88095 6.25569 4.94705L7.9566 6.08099C8.46972 6.42308 9.09328 6.43746 9.60657 6.22448C10.1162 6.01303 10.5524 5.56267 10.6738 4.95539L11.0747 2.95097Z" fill="#21242C"/>
</svg>
