<svg width="24" height="24" viewBox="0 0 24 24" fill="none" xmlns="http://www.w3.org/2000/svg">
<g clip-path="url(#clip0_141_999)">
<path d="M4 0H3C2.17157 0 1.5 0.671573 1.5 1.5V13.5C1.5 14.3284 2.17157 15 3 15H4V13.5H3V1.5H4V0Z" fill="#21242C"/>
<path d="M7.5 0H9V1.5H7.5V13.5H9V15H7.5C6.67157 15 6 14.3284 6 13.5V1.5C6 0.671573 6.67157 0 7.5 0Z" fill="#21242C"/>
<path fill-rule="evenodd" clip-rule="evenodd" d="M11 1.5C11 0.671573 11.6716 0 12.5 0H17.5C17.8978 0 18.2794 0.158035 18.5607 0.43934L22.5607 4.43934C22.842 4.72064 23 5.10218 23 5.5V13.5C23 14.3284 22.3284 15 21.5 15H12.5C11.6716 15 11 14.3284 11 13.5V1.5ZM12.5 13.5V1.5H17.5V4.5C17.5 5.05228 17.9477 5.5 18.5 5.5H21.5V13.5H12.5Z" fill="#21242C"/>
<path d="M8.46967 20.5303C8.17678 20.2374 8.17678 19.7626 8.46967 19.4697C8.76256 19.1768 9.23744 19.1768 9.53033 19.4697L11.25 21.1893V17C11.25 16.5858 11.5858 16.25 12 16.25C12.4142 16.25 12.75 16.5858 12.75 17V21.1893L14.4697 19.4697C14.7626 19.1768 15.2374 19.1768 15.5303 19.4697C15.8232 19.7626 15.8232 20.2374 15.5303 20.5303L12 24.0607L8.46967 20.5303Z" fill="#21242C"/>
</g>
<defs>
<clipPath id="clip0_141_999">
<rect width="24" height="24" fill="white"/>
</clipPath>
</defs>
</svg>
