<svg width="16" height="17" viewBox="0 0 16 17" fill="none" xmlns="http://www.w3.org/2000/svg">
<path fill-rule="evenodd" clip-rule="evenodd" d="M8 16.5C12.4183 16.5 16 12.9183 16 8.5C16 4.08172 12.4183 0.5 8 0.5C3.58172 0.5 0 4.08172 0 8.5C0 12.9183 3.58172 16.5 8 16.5ZM3.49994 5.18252V11.2056C3.49994 11.3151 3.57295 11.3881 3.68246 11.3881C5.83617 11.3881 7.51534 11.9722 7.51534 12.4832V5.85783C6.82177 5.31028 5.23386 5 3.68246 5C3.57295 5 3.49994 5.07301 3.49994 5.18252ZM12.3328 5C10.7814 5 9.19351 5.31028 8.49994 5.85783V12.4832C8.49994 11.9722 10.1791 11.3881 12.3328 11.3881C12.4423 11.3881 12.5153 11.3151 12.5153 11.2056V5.18252C12.5153 5.07301 12.4423 5 12.3328 5Z" fill="#4537DE"/>
</svg>
