<svg width="24" height="24" viewBox="0 0 24 24" fill="none" xmlns="http://www.w3.org/2000/svg">
<g clip-path="url(#clip0_141_990)">
<path d="M15.5303 4.53033C15.8232 4.23744 15.8232 3.76256 15.5303 3.46967L12 -0.0606613L8.46967 3.46967C8.17678 3.76256 8.17678 4.23744 8.46967 4.53033C8.76256 4.82322 9.23744 4.82322 9.53033 4.53033L11.25 2.81066V7C11.25 7.41421 11.5858 7.75 12 7.75C12.4142 7.75 12.75 7.41421 12.75 7V2.81066L14.4697 4.53033C14.7626 4.82322 15.2374 4.82322 15.5303 4.53033Z" fill="#21242C"/>
<path fill-rule="evenodd" clip-rule="evenodd" d="M11 10.5C11 9.67157 11.6716 9 12.5 9H17.5C17.8978 9 18.2794 9.15803 18.5607 9.43934L22.5607 13.4393C22.842 13.7206 23 14.1022 23 14.5V22.5C23 23.3284 22.3284 24 21.5 24H12.5C11.6716 24 11 23.3284 11 22.5V10.5ZM12.5 22.5V10.5H17.5V13.5C17.5 14.0523 17.9477 14.5 18.5 14.5H21.5V22.5H12.5Z" fill="#21242C"/>
<path d="M9 9H7.5C6.67157 9 6 9.67157 6 10.5V22.5C6 23.3284 6.67157 24 7.5 24H9V22.5H7.5V10.5H9V9Z" fill="#21242C"/>
<path d="M3 9H4V10.5H3V22.5H4V24H3C2.17157 24 1.5 23.3284 1.5 22.5V10.5C1.5 9.67157 2.17157 9 3 9Z" fill="#21242C"/>
</g>
<defs>
<clipPath id="clip0_141_990">
<rect width="24" height="24" fill="white"/>
</clipPath>
</defs>
</svg>
