<svg width="24" height="24" viewBox="0 0 24 24" fill="none" xmlns="http://www.w3.org/2000/svg">
<path fill-rule="evenodd" clip-rule="evenodd" d="M10.4055 5.75C10.0725 7.04392 8.89788 8 7.5 8C6.10212 8 4.92755 7.04392 4.59451 5.75H2C1.58579 5.75 1.25 5.41421 1.25 5C1.25 4.58579 1.58579 4.25 2 4.25H4.59451C4.92755 2.95608 6.10212 2 7.5 2C8.89788 2 10.0725 2.95608 10.4055 4.25H22C22.4142 4.25 22.75 4.58579 22.75 5C22.75 5.41421 22.4142 5.75 22 5.75H10.4055ZM9 5C9 5.82843 8.32843 6.5 7.5 6.5C6.67157 6.5 6 5.82843 6 5C6 4.17157 6.67157 3.5 7.5 3.5C8.32843 3.5 9 4.17157 9 5Z" fill="#21242C"/>
<path fill-rule="evenodd" clip-rule="evenodd" d="M2 11.25C1.58579 11.25 1.25 11.5858 1.25 12C1.25 12.4142 1.58579 12.75 2 12.75H14.5945C14.9275 14.0439 16.1021 15 17.5 15C18.8979 15 20.0725 14.0439 20.4055 12.75H22C22.4142 12.75 22.75 12.4142 22.75 12C22.75 11.5858 22.4142 11.25 22 11.25H20.4055C20.0725 9.95608 18.8979 9 17.5 9C16.1021 9 14.9275 9.95608 14.5945 11.25H2ZM17.5 13.5C18.3284 13.5 19 12.8284 19 12C19 11.1716 18.3284 10.5 17.5 10.5C16.6716 10.5 16 11.1716 16 12C16 12.8284 16.6716 13.5 17.5 13.5Z" fill="#21242C"/>
<path fill-rule="evenodd" clip-rule="evenodd" d="M1.25 19C1.25 18.5858 1.58579 18.25 2 18.25H5.59451C5.92755 16.9561 7.10212 16 8.5 16C9.89788 16 11.0725 16.9561 11.4055 18.25H22C22.4142 18.25 22.75 18.5858 22.75 19C22.75 19.4142 22.4142 19.75 22 19.75H11.4055C11.0725 21.0439 9.89788 22 8.5 22C7.10212 22 5.92755 21.0439 5.59451 19.75H2C1.58579 19.75 1.25 19.4142 1.25 19ZM10 19C10 19.8284 9.32843 20.5 8.5 20.5C7.67157 20.5 7 19.8284 7 19C7 18.1716 7.67157 17.5 8.5 17.5C9.32843 17.5 10 18.1716 10 19Z" fill="#21242C"/>
</svg>
